<svg width="52" height="52" viewBox="0 0 52 52" fill="none" xmlns="http://www.w3.org/2000/svg">
    <path d="M0 26C0 11.6406 11.6406 0 26 0C40.3594 0 52 11.6406 52 26C52 40.3594 40.3594 52 26 52C11.6406 52 0 40.3594 0 26Z" fill="white"/>
    <path d="M0.5 26C0.5 11.9168 11.9168 0.5 26 0.5C40.0832 0.5 51.5 11.9168 51.5 26C51.5 40.0832 40.0832 51.5 26 51.5C11.9168 51.5 0.5 40.0832 0.5 26Z" stroke="#3C3C43" stroke-opacity="0.3"/>
    <path fill-rule="evenodd" clip-rule="evenodd" d="M31.4361 9C31.7044 10.8222 30.9626 12.6073 29.9843 13.8703C28.9375 15.2251 27.1332 16.2728 25.385 16.2182C25.0659 14.4736 25.883 12.6761 26.8773 11.4678C27.9678 10.1342 29.837 9.11113 31.4361 9ZM36.6876 34.6481C37.5888 33.2669 37.9255 32.5701 38.6251 31.0107C33.5367 29.0757 32.7214 21.8417 37.7571 19.0652C36.2211 17.139 34.0627 16.0223 32.0252 16.0223C30.5571 16.0223 29.5512 16.4054 28.6369 16.7537C27.8748 17.044 27.1762 17.31 26.3266 17.31C25.4085 17.31 24.5955 17.0185 23.7442 16.7133C22.8086 16.3779 21.827 16.0259 20.6087 16.0259C18.3223 16.0259 15.8886 17.423 14.3456 19.8113C12.1766 23.1753 12.5466 29.4991 16.0639 34.8862C17.3212 36.8143 19.0009 38.9805 21.1979 38.9998C22.1095 39.0089 22.7162 38.7368 23.3726 38.4423C24.1241 38.1054 24.9407 37.739 26.3547 37.7316C27.777 37.723 28.5808 38.0937 29.3222 38.4357C29.9619 38.7307 30.555 39.0044 31.4589 38.9946C33.6576 38.9769 35.4304 36.5761 36.6876 34.6481Z" fill="#0B0B0A"/>
</svg>

