<svg width="52" height="52" viewBox="0 0 52 52" fill="none" xmlns="http://www.w3.org/2000/svg">
    <path d="M52 26C52 11.6391 40.3609 0 26 0C11.6391 0 0 11.6391 0 26C0 38.9797 9.50625 49.7352 21.9375 51.6852V33.5156H15.3359V26H21.9375V20.2719C21.9375 13.7566 25.8172 10.1562 31.7586 10.1562C34.6023 10.1562 37.5781 10.6641 37.5781 10.6641V17.0625H34.2977C31.0679 17.0625 30.0625 19.0684 30.0625 21.125V26H37.2734L36.1207 33.5156H30.0625V51.6852C42.4938 49.7352 52 38.9797 52 26Z" fill="#1877F2"/>
    <path d="M36.1208 33.5156L37.2734 26H30.0626V21.125C30.0626 19.0684 31.068 17.0625 34.2977 17.0625H37.5782V10.6641C37.5782 10.6641 34.6024 10.1562 31.7586 10.1562C25.8173 10.1562 21.9376 13.7566 21.9376 20.2719V26H15.3359V33.5156H21.9376V51.6852C23.2629 51.8934 24.6188 52 26.0001 52C27.3813 52 28.7372 51.8934 30.0626 51.6852V33.5156H36.1208Z" fill="white"/>
</svg>
