<svg width="52" height="52" viewBox="0 0 52 52" fill="none" xmlns="http://www.w3.org/2000/svg">
    <path d="M0 26C0 11.6406 11.6406 0 26 0C40.3594 0 52 11.6406 52 26C52 40.3594 40.3594 52 26 52C11.6406 52 0 40.3594 0 26Z" fill="white"/>
    <path d="M0.5 26C0.5 11.9168 11.9168 0.5 26 0.5C40.0832 0.5 51.5 11.9168 51.5 26C51.5 40.0832 40.0832 51.5 26 51.5C11.9168 51.5 0.5 40.0832 0.5 26Z" stroke="#3C3C43" stroke-opacity="0.3"/>
    <path d="M25.9995 16.7999C28.8162 16.7999 30.7161 18.0167 31.7996 19.0334L36.0329 14.9C33.4329 12.4833 30.0495 11 25.9995 11C20.1329 11 15.0662 14.3666 12.5996 19.2666L17.4495 23.0333C18.6662 19.4166 22.0329 16.7999 25.9995 16.7999Z" fill="#EA4335"/>
    <path d="M40.4 26.3334C40.4 25.1 40.3 24.2 40.0833 23.2667H26V28.8333H34.2667C34.1 30.2166 33.2 32.3 31.2 33.6999L35.9333 37.3667C38.7667 34.7499 40.4 30.9 40.4 26.3334Z" fill="#4285F4"/>
    <path d="M17.4667 28.9666C17.15 28.0333 16.9667 27.0332 16.9667 26C16.9667 24.9665 17.15 23.9666 17.45 23.0333L12.6 19.2665C11.5834 21.2999 11 23.5832 11 26C11 28.4165 11.5834 30.7 12.6 32.7332L17.4667 28.9666Z" fill="#FBBC05"/>
    <path d="M25.9995 41C30.0495 41 33.4495 39.6667 35.9328 37.3667L31.1995 33.7C29.9328 34.5833 28.2328 35.2 25.9995 35.2C22.0329 35.2 18.6663 32.5833 17.4663 28.9667L12.6162 32.7333C15.0828 37.6334 20.1328 41 25.9995 41Z" fill="#34A853"/>
</svg>
