<svg width="52" height="52" viewBox="0 0 52 52" fill="none" xmlns="http://www.w3.org/2000/svg">
    <path d="M0 26C0 11.6406 11.6406 0 26 0C40.3594 0 52 11.6406 52 26C52 40.3594 40.3594 52 26 52C11.6406 52 0 40.3594 0 26Z" fill="#0077B5"/>
    <path fill-rule="evenodd" clip-rule="evenodd" d="M18.7625 16.0579C18.7625 17.7578 17.4829 19.118 15.4284 19.118H15.3908C13.4126 19.118 12.1338 17.7578 12.1338 16.0579C12.1338 14.3221 13.4516 13 15.4672 13C17.4829 13 18.7242 14.3221 18.7625 16.0579ZM18.3743 21.5343V39.2379H12.4822V21.5343H18.3743ZM39.6236 39.2379L39.6238 29.0872C39.6238 23.6494 36.717 21.1186 32.8397 21.1186C29.7114 21.1186 28.3107 22.8369 27.5287 24.0424V21.5348H21.6358C21.7135 23.196 21.6358 39.2383 21.6358 39.2383H27.5287V29.3512C27.5287 28.8221 27.567 28.2943 27.7228 27.9155C28.1486 26.8585 29.1182 25.7641 30.746 25.7641C32.879 25.7641 33.7317 27.3875 33.7317 29.7665V39.2379H39.6236Z" fill="white"/>
</svg>


