<svg width="25"
    height="24"
    viewBox="0 0 25 24"
    fill="none"
    xmlns="http://www.w3.org/2000/svg">
    <path
        d="M0.699794 10.8304L0.698459 10.8286C0.520019 10.5837 0.549678 10.4451 0.559614 10.4217C0.563787 10.4119 0.573911 10.3925 0.615646 10.3703C0.662121 10.3456 0.753489 10.3157 0.909621 10.3157H2.44771H2.8559L2.93759 9.91574C3.94592 4.97913 8.37108 1.20801 13.5878 1.20801C19.53 1.20801 24.4477 6.12575 24.4477 12.0679C24.4477 18.01 19.53 22.9277 13.5878 22.9277C10.2021 22.9277 7.00614 21.2262 5.07474 18.707L5.06992 18.7007L5.06491 18.6946C4.7253 18.2795 4.84282 17.9062 5.07925 17.7366L5.07927 17.7366L5.08383 17.7333C5.35223 17.5361 5.72035 17.5645 6.04891 17.9332C7.78841 20.2089 10.4987 21.653 13.586 21.6645L13.5868 21.6645C18.9083 21.6761 23.1735 17.385 23.1735 12.0679C23.1735 6.749 18.9067 2.48218 13.5878 2.48218C9.08125 2.48218 5.33612 5.53091 4.28115 9.69282L4.12327 10.3157H4.76582H6.35884C6.51006 10.3157 6.59685 10.3454 6.63988 10.3689C6.67837 10.39 6.68857 10.4087 6.69328 10.4201C6.70458 10.4474 6.72995 10.5856 6.56056 10.8155L6.56054 10.8154L6.55728 10.82L3.87661 14.5443L3.87615 14.545C3.76605 14.6985 3.67015 14.7193 3.62993 14.7196C3.59128 14.7198 3.49471 14.7017 3.38021 14.5434C3.3802 14.5434 3.38018 14.5434 3.38016 14.5434L0.699794 10.8304ZM16.2544 16.6804L16.2544 16.6804L16.2508 16.683C16.1121 16.783 15.9858 16.804 15.8808 16.7856C15.7735 16.7668 15.6363 16.6973 15.5016 16.5218C15.5014 16.5215 15.5011 16.5212 15.5009 16.5209L12.8896 13.0758C12.7549 12.8928 12.7146 12.7534 12.7146 12.6172V6.6626C12.7146 6.41512 12.9154 6.20679 13.1813 6.20679C13.4326 6.20679 13.6372 6.4114 13.6372 6.6626V12.2876V12.4531L13.7359 12.5859L16.2848 16.0137L16.2849 16.0138C16.5054 16.3102 16.4284 16.5574 16.2544 16.6804Z"
        fill="white"
        stroke="#FF9500" />
</svg>
