<svg width="24"
    height="24"
    viewBox="0 0 24 24"
    fill="none"
    xmlns="http://www.w3.org/2000/svg">
    <path
        d="M11.6919 16.8794C11.7938 16.8861 11.8964 16.8896 11.9999 16.8896C12.0742 16.8896 12.15 16.8881 12.2273 16.8843C12.2626 16.883 12.3013 16.8805 12.3208 16.8795L12.3282 16.8791L12.3355 16.8785L12.3469 16.8775L12.3496 16.8773L12.4297 16.8711L12.4297 16.8712L12.4417 16.87L12.4585 16.8683C12.4589 16.8683 12.4593 16.8682 12.4598 16.8682C12.4632 16.8678 12.4668 16.8675 12.4705 16.8671C12.4927 16.865 12.5188 16.8625 12.5451 16.8595L12.5575 16.8583L12.5681 16.8573L12.5786 16.8558C12.5874 16.8546 12.5969 16.8534 12.6116 16.8516L12.613 16.8514C12.6261 16.8498 12.6439 16.8476 12.6623 16.845L12.6623 16.845L12.6691 16.844L12.6796 16.8423C12.8788 16.8149 13.0766 16.7745 13.2695 16.7231L13.2749 16.7222L13.3014 16.7147L13.3073 16.713C13.3315 16.7062 13.3623 16.6975 13.3937 16.6877L13.3996 16.686C13.4294 16.6772 13.4624 16.6672 13.4967 16.6558L13.4987 16.6552L13.4988 16.6552L13.5056 16.653C13.7368 16.5782 13.964 16.4855 14.1814 16.3769L14.1814 16.3769L14.183 16.3761L14.1831 16.3761C14.1988 16.3682 14.2228 16.3559 14.2413 16.3463C14.2511 16.3413 14.2593 16.3371 14.2641 16.3347L14.2736 16.3298L14.283 16.3246L14.2843 16.3238C14.315 16.3079 14.3442 16.2917 14.3654 16.2801L14.428 16.2457L14.4306 16.2431C14.6171 16.1358 14.7967 16.0162 14.9672 15.8865L14.9781 15.8783L14.9782 15.8784L14.9885 15.8702C14.9913 15.868 14.9955 15.8646 15.0007 15.8606C15.0134 15.8506 15.0319 15.836 15.0486 15.8225L15.0531 15.8192L15.0606 15.8131C15.9733 15.0797 16.6187 14.0236 16.8217 12.8158L16.8219 12.8158L16.8233 12.8062C16.828 12.7776 16.8338 12.7421 16.8387 12.7067C16.872 12.4759 16.8896 12.2399 16.8896 11.9997C16.8896 11.8961 16.8866 11.7958 16.882 11.6993L16.8363 10.736L16.743 10.8087C16.4569 9.66653 15.769 8.68431 14.84 8.02042L14.8302 8.01337L14.82 8.0068C13.156 6.93558 10.8391 6.9364 9.17606 8.00943L9.16589 8.01599L9.15605 8.02303C7.97654 8.86762 7.1868 10.2261 7.11582 11.7723L7.11581 11.7723L7.11565 11.7764C7.11311 11.8441 7.11041 11.9206 7.11041 12.0001V12.0009C7.11041 12.2155 7.12501 12.4296 7.15268 12.6406M11.6919 16.8794C10.5195 16.8065 9.45895 16.3199 8.65515 15.5655L8.64916 15.5598L8.64898 15.5597C8.45189 15.3748 8.27043 15.1721 8.10814 14.959C8.10785 14.9586 8.10756 14.9582 8.10727 14.9578L8.10302 14.9523L8.10297 14.9522C8.08187 14.9248 8.06136 14.8971 8.04377 14.8731L8.03678 14.8636L8.03689 14.8635L8.03627 14.8626C8.03331 14.8585 8.02915 14.8527 8.02429 14.8459C8.01169 14.8284 7.99436 14.8042 7.98092 14.7848L7.97619 14.7779L7.97625 14.7779L7.97578 14.7772C7.86155 14.6116 7.75546 14.4372 7.66145 14.257L7.65963 14.2535L7.65964 14.2535L7.65543 14.2452C7.6554 14.2452 7.65537 14.2451 7.65534 14.2451C7.64621 14.2272 7.63628 14.2074 7.62779 14.1905C7.62407 14.1831 7.62063 14.1762 7.61766 14.1703L7.61691 14.1688L7.61008 14.1552L7.60781 14.1506L7.60783 14.1506C7.59622 14.1268 7.5839 14.1012 7.5723 14.0766L7.56548 14.0626L7.55949 14.0503L7.55966 14.0503C7.55227 14.034 7.54248 14.0119 7.53493 13.9948C7.53127 13.9865 7.52813 13.9794 7.52604 13.9747L7.5225 13.9668L7.52256 13.9668L7.51861 13.9575C7.50816 13.934 7.49793 13.9099 7.48987 13.891C7.48793 13.8864 7.48612 13.8821 7.48446 13.8782L7.48004 13.8679L7.48016 13.8678L7.47451 13.8537L7.47391 13.8522L7.445 13.7813L7.43565 13.7586L7.43261 13.7484C7.38769 13.6299 7.34596 13.5077 7.30923 13.3841L7.30854 13.3817L7.30444 13.3677L7.30367 13.365L7.30367 13.365C7.29623 13.339 7.28914 13.3129 7.28302 13.2905L7.28125 13.2839L7.2771 13.2693L7.27647 13.2671C7.26703 13.2333 7.25876 13.1998 7.25215 13.1721C7.25214 13.172 7.25214 13.172 7.25214 13.172C7.25209 13.1718 7.25204 13.1716 7.25198 13.1714L7.24829 13.156C7.24089 13.1269 7.23373 13.0965 7.22735 13.067C7.22735 13.067 7.22735 13.067 7.22735 13.067L7.22208 13.0426L7.22014 13.0336L7.22022 13.0336L7.21382 13.003L7.21373 13.0026C7.21107 12.9901 7.20736 12.9727 7.20392 12.955L7.20251 12.9477L7.20132 12.9404L7.20102 12.9386C7.18199 12.8409 7.16571 12.7417 7.15268 12.6406M11.6919 16.8794C11.6923 16.8794 11.6926 16.8794 11.693 16.8794L11.7239 16.3804L11.6909 16.8793C11.6912 16.8793 11.6916 16.8794 11.6919 16.8794ZM7.15268 12.6406C7.1527 12.6408 7.15273 12.641 7.15275 12.6412L7.6485 12.5761L7.15259 12.6399C7.15262 12.6401 7.15265 12.6403 7.15268 12.6406ZM14.0035 6.51205L14.3031 6.62155L14.5287 6.396L17.3216 3.6032L17.7853 3.13954L17.2155 2.81512C15.6764 1.93895 13.8955 1.43869 11.9997 1.43869C10.0839 1.43869 8.28539 1.94963 6.7347 2.84361L6.16976 3.16931L6.63092 3.63038L9.41746 6.41634L9.64524 6.64407L9.94677 6.53082C10.5854 6.29097 11.2771 6.15923 11.9997 6.15923C12.7044 6.15923 13.3796 6.28401 14.0035 6.51205ZM17.6861 9.71195L17.4704 9.92757L17.5634 10.218C17.7432 10.7795 17.8408 11.3783 17.8408 11.9997C17.8408 12.7229 17.709 13.4147 17.4689 14.053L17.3554 14.3546L17.5833 14.5826L20.3698 17.3693L20.831 17.8305L21.1567 17.2654C22.0499 15.7149 22.5617 13.9164 22.5617 11.9997C22.5617 10.1934 22.107 8.4911 21.3061 7.00261L20.9876 6.41063L20.5123 6.88595L17.6861 9.71195ZM14.2318 17.7042L14.0184 17.4909L13.7303 17.5802C13.1842 17.7493 12.6026 17.8408 11.9999 17.8408C11.3786 17.8408 10.7798 17.743 10.2182 17.5632L9.9278 17.4702L9.71218 17.6858L6.88618 20.5114L6.41084 20.9867L7.00273 21.3053C8.49104 22.1064 10.1935 22.5613 11.9999 22.5613C13.7866 22.5613 15.4702 22.1164 16.9463 21.3326L17.5435 21.0155L17.0654 20.5374L14.2318 17.7042ZM6.39636 14.5283L6.62206 14.3026L6.51237 14.0029C6.28399 13.3789 6.15923 12.7042 6.15923 11.9995C6.15923 11.3972 6.2507 10.8158 6.41986 10.2695L6.50909 9.98131L6.29579 9.76801L3.46256 6.93479L2.98448 6.4567L2.6674 7.05386C1.88361 8.52997 1.43869 10.2138 1.43869 11.9997C1.43869 13.8954 1.93938 15.6761 2.81507 17.215L3.13942 17.785L3.60318 17.3213L6.39636 14.5283ZM11.9997 0.5C18.3504 0.5 23.5 5.64983 23.5 11.9997C23.5 18.3506 18.3502 23.5 11.9997 23.5C5.64983 23.5 0.5 18.3504 0.5 11.9997C0.5 5.64963 5.64981 0.5 11.9997 0.5Z"
        fill="white"
        stroke="#FF9500" />
</svg>
