<svg width="23"
    height="26"
    viewBox="0 0 23 26"
    fill="none"
    xmlns="http://www.w3.org/2000/svg">
    <path
        d="M12.5225 8.81711L12.1538 8.91746V9.29956V16.2209C12.1538 17.6701 11.9897 18.8243 11.7762 19.6013C11.6855 19.9313 11.59 20.1781 11.5032 20.3461C11.4159 20.1765 11.3197 19.928 11.2283 19.5967C11.0133 18.8179 10.8467 17.6637 10.8467 16.2209V9.28857V8.90648L10.478 8.80613C8.83719 8.35952 7.64966 6.85292 7.64966 5.08081C7.64966 2.93503 9.3643 1.19727 11.5002 1.19727C13.648 1.19727 15.3618 2.93586 15.3618 5.08081C15.3618 6.86271 14.1645 8.37018 12.5225 8.81711ZM8.27563 3.81738C8.27563 4.90651 9.20262 5.82251 10.2698 5.82251C11.377 5.82251 12.2639 4.89936 12.2639 3.81738C12.2639 2.73924 11.3699 1.83423 10.2698 1.83423C9.20977 1.83423 8.27563 2.73214 8.27563 3.81738ZM22.1733 20.2969C22.1733 21.3616 21.3427 22.4936 19.4899 23.3868C17.6581 24.27 14.9452 24.8506 11.5002 24.8506C8.05532 24.8506 5.34237 24.27 3.5106 23.3868C1.65784 22.4936 0.827148 21.3616 0.827148 20.2969C0.827148 19.0989 1.75062 18.0127 3.28218 17.1745C4.64185 16.4304 6.36714 15.9515 7.96802 15.81V16.776C6.80954 16.8826 5.55273 17.1876 4.53134 17.6479C3.95003 17.9099 3.41907 18.2337 3.02603 18.6219C2.63215 19.011 2.34302 19.5007 2.34302 20.0771C2.34302 20.7284 2.65896 21.2902 3.14972 21.7452C3.63514 22.1952 4.31338 22.5642 5.1172 22.858C6.72729 23.4465 8.95474 23.7742 11.5002 23.7742C14.0462 23.7742 16.2763 23.4436 17.8889 22.8539C18.6939 22.5594 19.3731 22.1903 19.8593 21.7412C20.3506 21.2875 20.6685 20.727 20.6685 20.0771C20.6685 19.5007 20.3793 19.0109 19.9852 18.6218C19.5919 18.2336 19.0606 17.9098 18.4785 17.6478C17.4554 17.1872 16.1956 16.8823 15.0325 16.7759V15.81C16.6334 15.9515 18.3586 16.4304 19.7183 17.1745C21.2499 18.0127 22.1733 19.0989 22.1733 20.2969Z"
        fill="#FF9500"
        stroke="#FF9500" />
</svg>
