<svg width="24"
    height="28"
    viewBox="0 0 24 28"
    fill="none"
    xmlns="http://www.w3.org/2000/svg">
    <path
        d="M18.2774 12.5959H5.72259C4.32819 12.5959 3.09518 11.2979 3.09518 9.57584C3.09518 7.85564 4.32784 6.55853 5.72259 6.55853H13.5697C14.3402 6.55853 14.8673 5.87587 14.8673 5.16122C14.8673 4.44657 14.3402 3.76392 13.5697 3.76392H5.72259C2.78882 3.76392 0.5 6.42755 0.5 9.57584C0.5 12.7253 2.78859 15.3905 5.72259 15.3905H18.2774C19.6718 15.3905 20.9048 16.6885 20.9048 18.4107C20.9048 20.1309 19.6722 21.428 18.2774 21.428H10.3625C9.59218 21.428 9.06496 22.1106 9.06496 22.8253C9.06496 23.54 9.59218 24.2226 10.3625 24.2226H18.2774C21.2112 24.2226 23.5 21.559 23.5 18.4107C23.5 15.2611 21.2114 12.5959 18.2774 12.5959Z"
        fill="white"
        stroke="#FF9500" />
    <path
        d="M4.67239 27.0559C4.90999 27.3232 5.24562 27.4865 5.61015 27.4865C5.97453 27.4865 6.31028 27.3232 6.54791 27.0559L6.54807 27.0557C6.6173 26.9777 7.33908 26.155 8.04606 24.9348C8.74821 23.7229 9.46716 22.0657 9.46716 20.3302V20.3302C9.46692 18.0287 7.79102 16.0534 5.61004 16.0534C3.42899 16.0534 1.75293 18.0286 1.75293 20.3302C1.75293 22.0657 2.4719 23.7229 3.17409 24.9348C3.88056 26.1541 4.60186 26.9766 4.67239 27.0559ZM4.67239 27.0559L5.04609 26.7237L4.67254 27.056C4.67249 27.056 4.67244 27.0559 4.67239 27.0559ZM6.29488 22.5947C6.08548 23.0499 5.84328 23.4738 5.60999 23.8405C5.37667 23.4738 5.13443 23.0499 4.92501 22.5947C4.58647 21.8588 4.34811 21.0722 4.34811 20.3302C4.34811 19.4563 4.96844 18.848 5.61004 18.848C6.25155 18.848 6.87176 19.4564 6.87176 20.3302C6.87176 21.0722 6.63341 21.8588 6.29488 22.5947Z"
        fill="white"
        stroke="#FF9500" />
    <path
        d="M19.0083 7.04114C18.7987 7.4965 18.5562 7.92059 18.3227 8.28738C18.0893 7.92063 17.847 7.4966 17.6375 7.04129C17.2989 6.3054 17.0605 5.51871 17.0605 4.77658V4.77653C17.0604 3.903 17.6807 3.29461 18.3224 3.29461C18.9652 3.29461 19.5857 3.90331 19.5857 4.77658C19.5857 5.51858 19.3471 6.30522 19.0083 7.04114ZM18.3224 11.9329C18.6736 11.9329 19.0122 11.781 19.2599 11.5026C19.3297 11.4242 20.0517 10.6015 20.7589 9.38155C21.4615 8.16963 22.1808 6.51232 22.1808 4.7767C22.1808 2.47488 20.5039 0.5 18.3224 0.5C16.1414 0.5 14.4653 2.47507 14.4653 4.77658C14.4653 6.51208 15.1843 8.16933 15.8865 9.38124C16.5935 10.6014 17.3154 11.4241 17.3852 11.5026C17.6328 11.7812 17.9714 11.9329 18.3224 11.9329Z"
        fill="white"
        stroke="#FF9500" />
</svg>
