<svg width="115" height="32" viewBox="0 0 115 32" fill="none" xmlns="http://www.w3.org/2000/svg">
    <path
        d="M0.411664 13.5895C0.137221 12.972 0 12.3546 0 11.8057C0 9.88457 1.57804 8.10069 4.80274 6.45404C7.95883 4.80738 11.458 3.98406 15.3002 3.98406C17.3585 3.98406 19.0738 4.39572 20.446 5.21905C21.7496 6.04237 22.3671 7.07153 22.3671 8.37514C22.3671 10.8451 20.6518 13.1093 17.1527 15.2362C19.211 15.7851 20.789 16.6084 21.9554 17.7062C23.1218 18.804 23.6707 20.1076 23.6707 21.4798C23.6707 24.2242 22.1612 26.6256 19.1424 28.5467C16.1235 30.5364 12.4871 31.4969 8.23328 31.4969C5.07719 31.4969 3.49914 30.4678 3.49914 28.4781C3.49914 28.0664 3.70497 26.9686 4.04803 25.2534L6.4494 13.0407C6.65523 12.0801 6.72384 11.394 6.72384 10.9823C6.72384 10.5707 6.58662 10.2276 6.31218 9.88457C7.82161 9.33569 8.91938 9.06124 9.46827 9.06124C10.223 9.06124 10.566 9.47291 10.566 10.2962C10.566 10.5021 10.3602 11.4626 10.0172 13.3151L7.753 24.5672C7.47856 25.8708 7.34134 26.6942 7.34134 27.1058C7.34134 28.5467 8.71355 29.2328 11.5266 29.2328C13.7221 29.2328 15.7118 28.6153 17.2899 27.3117C18.9365 26.0081 19.6913 24.43 19.6913 22.6461C19.6913 21.2053 19.2796 20.1076 18.3877 19.2842C17.4957 18.5295 15.9863 17.912 13.8593 17.4317C13.1046 17.7748 12.3499 17.912 11.458 17.912C11.1835 17.912 10.7719 17.8434 10.3602 17.7748C10.6346 16.5398 11.0463 15.7165 11.5952 15.3048C12.0755 14.8245 12.8988 14.6187 13.9966 14.6187C14.271 14.6187 14.6141 14.6187 15.0943 14.6873C17.5643 12.9034 18.7993 11.1196 18.7993 9.4043C18.7993 7.34598 17.2213 6.31682 14.0652 6.31682C8.91938 6.31682 4.39108 8.71819 0.411664 13.5895V13.5895ZM101.269 22.852C101.269 26.2139 102.642 27.8606 105.523 27.8606C107.033 27.8606 108.542 27.4489 109.983 26.6942C112.453 25.1847 113.139 24.087 113.551 23.1264C113.825 23.6067 114.031 24.2242 114.031 24.6359C114.031 24.8417 114.099 25.8708 112.247 27.5175C111.424 28.2722 110.806 28.6153 109.846 29.0955C107.856 29.9875 106.003 30.3991 104.151 30.3991C102.093 30.3991 100.515 29.7817 99.2796 28.4094C98.319 27.3117 97.7015 25.8708 97.5643 24.087C96.8096 24.9789 96.1235 25.8708 95.4374 26.6256C93.036 29.1642 90.9091 30.3991 89.0566 30.3991C87.753 30.3991 86.6552 29.9189 85.8319 28.8897C85.0086 27.8606 84.5969 26.4883 84.5969 24.8417C84.5969 23.8811 84.8027 22.5775 85.1458 20.8623L88.5077 3.77822C88.0961 3.84683 87.6844 3.84683 87.3413 3.84683C84.7341 3.84683 83.4305 2.74906 83.4305 0.484913V0.14186C84.8027 0.896577 86.3122 1.30824 88.0274 1.30824C89.8113 1.30824 91.3208 0.896577 92.5557 0.00463867L88.6449 20.5878C88.2333 22.4403 88.0961 23.7439 88.0961 24.43C88.0961 26.3511 88.7822 27.3117 90.223 27.3117C91.5952 27.3117 92.9674 26.557 94.3396 25.0475C95.163 24.087 96.2607 22.5775 97.7015 20.4506C98.1818 18.1865 99.1424 16.2654 100.72 14.4815C102.916 12.1487 105.523 10.9823 108.542 10.9823C110.051 10.9823 111.218 11.3254 112.11 12.0801C113.002 12.8348 113.413 13.7954 113.413 15.099C113.413 17.0887 112.178 18.9412 109.708 20.5192C107.307 22.0973 104.425 22.852 101.269 22.852V22.852ZM101.407 21.2053C103.808 21.0681 105.866 20.382 107.581 19.147C109.297 17.912 110.12 16.4712 110.12 14.8245C110.12 13.3837 109.503 12.6976 108.199 12.6976C106.621 12.6976 105.18 13.5209 103.877 15.1676C102.504 16.8142 101.681 18.804 101.407 21.2053V21.2053ZM81.0978 23.195C81.3722 23.8125 81.5094 24.2928 81.5094 24.7045C81.5094 25.8022 80.6175 27.0372 78.6964 28.4094C76.8439 29.713 75.1286 30.3991 73.5506 30.3991C72.1784 30.3991 71.0806 29.7817 70.1887 28.6153C69.3653 27.3803 68.8851 25.8022 68.8851 23.8811C68.8851 23.195 68.9537 22.4403 69.0909 21.617C67.5815 23.3323 65.9348 24.9103 64.1509 26.2825C60.5832 29.0269 57.1527 30.3991 53.9966 30.3991C51.9382 30.3991 50.2916 29.7817 49.1252 28.4094C47.8902 27.1058 47.2727 25.322 47.2727 22.9892C46.175 24.2242 44.94 25.322 43.6364 26.2825C40.0686 29.0269 36.6381 30.3991 33.4134 30.3991C31.3551 30.3991 29.777 29.7817 28.542 28.4094C27.3756 27.1058 26.7581 25.322 26.7581 22.9892C26.7581 19.6959 27.8559 16.8829 30.0515 14.4815C32.1784 12.1487 34.7856 10.9823 37.8731 10.9823C39.3139 10.9823 40.4803 11.3254 41.3722 12.0801C42.2642 12.8348 42.6758 13.7954 42.6758 15.099C42.6758 17.0887 41.5094 18.9412 39.0395 20.5192C36.5695 22.0973 33.7564 22.852 30.5317 22.852C30.5317 26.2139 31.9726 27.8606 34.7856 27.8606C37.2556 27.8606 39.9314 26.6942 42.8816 24.3614C44.5969 22.9892 46.2436 21.4112 47.753 19.5587C48.2333 17.7062 49.1938 15.9909 50.566 14.4815C52.693 12.1487 55.3002 10.9823 58.3877 10.9823C59.8285 10.9823 60.9949 11.3254 61.8868 12.0801C62.7787 12.8348 63.259 13.7954 63.259 15.099C63.259 17.0887 62.024 18.9412 59.554 20.5192C57.0841 22.0973 54.271 22.852 51.0463 22.852C51.0463 26.2139 52.4871 27.8606 55.3002 27.8606C57.7702 27.8606 60.446 26.6942 63.3962 24.3614C65.729 22.5089 67.9245 20.2448 69.8456 17.4317C70.0515 16.6084 70.3259 15.6479 70.6003 14.6873L71.3551 11.8057H68.4734C67.307 11.8057 66.3465 12.0115 65.5918 12.3546C66.2779 11.1196 66.8268 10.3648 67.2384 10.0904C67.7187 9.74735 68.4048 9.61013 69.434 9.61013H72.0412L72.3842 8.44375C72.9331 6.65987 73.5506 5.42488 74.3053 4.80738C74.9914 4.12128 76.0892 3.77822 77.5986 3.77822C77.7359 3.77822 78.0103 3.77822 78.422 3.84683C77.53 4.9446 76.6381 6.93431 75.6775 9.61013H81.578C83.1561 9.61013 84.3225 9.4043 85.1458 8.99263C84.8714 10.159 84.5283 10.9137 84.048 11.2568C83.5678 11.6684 82.6758 11.8057 81.3722 11.8057H74.9228C74.7856 12.2173 74.717 12.4918 74.6484 12.6976C73.2075 17.3631 72.5214 20.9309 72.5214 23.3323C72.5214 25.9395 73.482 27.3117 75.4031 27.3117C76.3636 27.3117 77.4614 26.9 78.6278 26.0767C79.7942 25.1847 80.6175 24.2928 81.0978 23.195V23.195ZM51.1835 21.2053C53.5849 21.0681 55.6432 20.382 57.3585 19.147C59.0738 17.912 59.9657 16.4712 59.9657 14.8245C59.9657 13.3837 59.2796 12.6976 57.976 12.6976C56.3979 12.6976 54.9571 13.5209 53.6535 15.1676C52.3499 16.8142 51.5266 18.804 51.1835 21.2053V21.2053ZM30.669 21.2053C33.0703 21.0681 35.1286 20.382 36.8439 19.147C38.5592 17.912 39.3825 16.4712 39.3825 14.8245C39.3825 13.3837 38.765 12.6976 37.4614 12.6976C35.8834 12.6976 34.4425 13.5209 33.1389 15.1676C31.8353 16.8142 31.012 18.804 30.669 21.2053Z"
        fill="black" />
</svg>
