<svg width="120" height="120" viewBox="0 0 120 120" fill="none" xmlns="http://www.w3.org/2000/svg">
    <g clip-path="url(#clip0_175_3846)">
        <path fill-rule="evenodd" clip-rule="evenodd"
            d="M78.0038 99.2115C74.4236 95.0806 71.2566 90.4677 68.6403 85.5105C66.0929 80.5534 64.0963 75.252 62.7193 69.6753C61.4111 64.305 60.7227 58.6594 60.7227 52.8761V19.0712H61.4111C63.5455 18.9335 65.6109 18.4516 67.4699 17.7631C69.4665 17.0058 71.2566 15.9042 72.8401 14.596C74.4925 13.2879 75.8694 11.7044 77.0399 9.98316C78.1415 8.26194 78.9676 6.33416 79.5184 4.33754L79.725 3.51135L80.5512 3.78675C84.8887 5.43913 89.0885 7.5046 92.8751 10.052C96.7995 12.5994 100.38 15.6288 103.547 19.0024C108.642 24.4415 112.704 30.8444 115.458 37.867C118.143 44.6142 119.589 51.9811 119.589 59.6922C119.589 64.9247 118.969 70.0195 117.661 74.9078C116.353 79.8649 114.425 84.6155 111.877 89.0218C109.399 93.4282 106.37 97.4903 102.927 101.07C99.4158 104.651 95.4914 107.818 91.1539 110.434L90.7408 110.709L90.3277 110.434C85.8525 107.198 81.6528 103.411 78.0038 99.2115V99.2115Z"
            fill="black" />
        <path fill-rule="evenodd" clip-rule="evenodd"
            d="M41.9959 99.2115C38.3469 103.411 34.216 107.198 29.672 110.434L29.2589 110.709L28.8458 110.434C24.5771 107.818 20.5839 104.651 17.1414 101.07C13.6301 97.4903 10.6008 93.4282 8.12222 89.0218C5.64366 84.6155 3.64704 79.8649 2.33891 74.9078C1.09962 70.0195 0.411133 64.9247 0.411133 59.6922C0.411133 51.9811 1.85696 44.6142 4.54207 37.867C7.36488 30.8444 11.427 24.4415 16.5218 19.0024C19.7577 15.5599 23.3379 12.5306 27.3311 9.91431C31.1866 7.3669 35.4553 5.23258 39.9305 3.64905L40.6878 3.37366L40.8944 4.19985C41.4452 6.19647 42.2713 8.12424 43.3729 9.91431C44.5434 11.6355 45.9203 13.2191 47.5727 14.5272C49.0874 15.8353 50.8775 16.8681 52.7364 17.6254C54.5953 18.3827 56.5919 18.8647 58.5886 19.0024L59.277 19.0712V52.8761C59.277 58.6594 58.5886 64.305 57.2804 69.6753C55.9723 75.252 53.9068 80.5534 51.3594 85.5105C48.812 90.4677 45.6449 95.0806 41.9959 99.2115V99.2115Z"
            fill="black" />
        <path fill-rule="evenodd" clip-rule="evenodd"
            d="M60.1035 113.532C68.985 113.532 77.3158 111.398 84.7515 107.611C77.7289 101.621 71.8767 94.3232 67.5392 86.0613C63.6837 78.6256 61.0674 70.4326 60.0347 61.7576C58.9331 70.4326 56.3168 78.6256 52.4613 86.0613C48.1926 94.2543 42.3405 101.552 35.3867 107.542C42.8224 111.398 51.222 113.532 60.1035 113.532V113.532ZM60.0347 0C66.5065 0 72.7717 1.03274 78.6239 2.89166C76.8338 11.4289 69.3293 17.8319 60.2412 17.8319C60.1035 17.8319 59.9658 17.8319 59.8281 17.8319C51.0154 17.6253 43.5109 11.2912 41.8585 2.75396C47.573 0.963886 53.7006 0 60.0347 0V0Z"
            fill="black" />
        <path fill-rule="evenodd" clip-rule="evenodd"
            d="M69.3293 85.1663C74.4241 95.0117 81.8598 103.411 90.8102 109.814C99.2786 104.651 106.301 97.3526 111.258 88.6776C116.078 80.1403 118.901 70.226 118.901 59.6921C118.901 44.2011 112.842 30.0182 102.996 19.5532C96.7312 12.8748 89.0201 7.71112 80.2763 4.54407C79.1058 8.74386 76.6273 12.4617 73.3225 15.2157C70.0177 17.8319 65.9557 19.5532 61.4805 19.8286V52.8761C61.4805 64.5116 64.3033 75.5274 69.3293 85.1663V85.1663Z"
            fill="url(#paint0_linear_175_3846)" />
        <path
            d="M70.0173 84.8221C72.4958 89.6415 75.594 94.1855 79.1742 98.2476C82.6166 102.241 86.541 105.821 90.8097 108.919C94.8718 106.441 98.5208 103.411 101.826 100.038C105.199 96.5264 108.16 92.602 110.638 88.2645C113.048 83.9959 114.907 79.383 116.215 74.4947C117.454 69.813 118.143 64.8558 118.143 59.6922C118.143 52.1876 116.697 44.9585 114.081 38.4178C111.396 31.5329 107.402 25.3365 102.445 20.0351C99.347 16.7304 95.8357 13.8387 92.049 11.2913C88.5377 8.95043 84.751 7.02265 80.7577 5.50797C80.1381 7.3669 79.3119 9.15697 78.2792 10.8094C77.0399 12.6683 75.5252 14.3207 73.804 15.7665C72.0827 17.1435 70.155 18.3139 68.0207 19.1401C66.1617 19.8286 64.234 20.3105 62.2373 20.5171V52.8761C62.2373 58.5906 62.857 64.0985 64.1651 69.331C65.4732 74.7701 67.4699 79.9338 70.0173 84.8221ZM78.0038 99.2115C74.4236 95.0806 71.2566 90.4677 68.6403 85.5105C66.0929 80.5534 64.0963 75.252 62.7193 69.6753C61.4111 64.305 60.7227 58.6594 60.7227 52.8761V19.0712H61.4111C63.5455 18.9335 65.6109 18.4516 67.4699 17.7631C69.4665 17.0058 71.2566 15.9042 72.8401 14.596C74.4925 13.2879 75.8694 11.7044 77.0399 9.98316C78.1415 8.26194 78.9676 6.33416 79.5184 4.33754L79.725 3.51135L80.5512 3.78675C84.8887 5.43913 89.0885 7.5046 92.8751 10.052C96.7995 12.5994 100.38 15.6288 103.547 19.0024C108.642 24.4415 112.704 30.8444 115.458 37.867C118.143 44.6142 119.589 51.9811 119.589 59.6922C119.589 64.9247 118.969 70.0195 117.661 74.9078C116.353 79.8649 114.425 84.6155 111.877 89.0218C109.399 93.4282 106.37 97.4903 102.927 101.07C99.4158 104.651 95.4914 107.818 91.1539 110.434L90.7408 110.709L90.3277 110.434C85.8525 107.198 81.6528 103.411 78.0038 99.2115V99.2115Z"
            fill="black" />
        <path fill-rule="evenodd" clip-rule="evenodd"
            d="M95.7666 71.1211C97.8321 70.0195 100.311 69.6753 102.652 70.4326C105.061 71.19 106.989 72.8423 108.022 74.9078C109.123 76.9733 109.468 79.4519 108.71 81.8616C107.953 84.2713 106.301 86.1302 104.235 87.2318C102.17 88.2645 99.691 88.6088 97.3502 87.8514C94.9404 87.0941 93.0127 85.4417 91.9799 83.4451C90.8783 81.3796 90.5341 78.9011 91.2914 76.4913C92.0488 74.0816 93.7011 72.2227 95.7666 71.1211ZM86.5408 20.2417C88.6063 19.2089 91.0849 18.8647 93.4946 19.622C95.9043 20.3794 97.7632 22.0318 98.8648 24.0284C99.9664 26.0939 100.242 28.5724 99.4845 30.9821C98.796 33.3918 97.1436 35.2508 95.0781 36.3524C93.0127 37.4539 90.5341 37.7982 88.1244 37.0408C85.7147 36.2835 83.8557 34.6311 82.7541 32.5657C81.6526 30.5002 81.3772 28.0216 82.1345 25.6119C82.823 23.271 84.4754 21.3433 86.5408 20.2417ZM72.3579 44.6831C74.6988 43.4438 77.5216 43.0996 80.2067 43.9257C82.8918 44.7519 85.0262 46.6109 86.2655 48.9517C87.5047 51.2926 87.849 54.0466 87.0228 56.8005C86.1966 59.4856 84.3377 61.6199 81.9968 62.8592C79.6559 64.0297 76.902 64.3739 74.148 63.5477C71.4629 62.7215 69.3286 60.8626 68.0893 58.5217C66.85 56.2497 66.5058 53.4269 67.4008 50.7418C68.227 47.9878 70.0859 45.9224 72.3579 44.6831Z"
            fill="black" />
        <path fill-rule="evenodd" clip-rule="evenodd"
            d="M50.7381 85.1663C45.6433 95.0117 38.2076 103.411 29.2572 109.814C20.7888 104.651 13.7662 97.3526 8.80907 88.6776C3.98963 80.1403 1.16683 70.226 1.16683 59.6921C1.16683 44.2011 7.22554 30.0182 17.071 19.5532C23.3362 12.8748 31.0473 7.71112 39.7911 4.54407C40.9616 8.74386 43.4401 12.4617 46.7449 15.2157C50.0496 17.8319 54.1117 19.5532 58.5869 19.8286V52.8761C58.5869 64.5116 55.7641 75.5274 50.7381 85.1663V85.1663Z"
            fill="url(#paint1_linear_175_3846)" />
        <path
            d="M50.0501 84.8221C47.5715 89.6415 44.4733 94.1855 40.8932 98.2476C37.4507 102.241 33.5263 105.821 29.2577 108.919C25.1956 106.441 21.5466 103.411 18.2419 100.038C14.8683 96.5264 11.9077 92.602 9.42917 88.2645C7.01946 83.9959 5.16054 79.383 3.85241 74.4947C2.61312 69.813 1.92463 64.8558 1.92463 59.6922C1.92463 52.1876 3.37046 44.9585 5.98672 38.4178C8.67183 31.5329 12.6651 25.3365 17.6222 20.0351C20.7204 16.7304 24.2317 13.8387 28.0184 11.2913C31.5297 8.95043 35.3164 7.02265 39.3097 5.50797C39.9293 7.3669 40.7555 9.15697 41.7882 10.8094C43.0275 12.6683 44.5422 14.3207 46.2634 15.7665C47.9846 17.1435 49.9124 18.3139 52.0467 19.1401C53.9057 19.8286 55.8334 20.3105 57.83 20.5171V52.8761C57.83 58.5906 57.2104 64.0985 55.9023 69.331C54.5941 74.7701 52.5975 79.9338 50.0501 84.8221ZM42.0636 99.2115C45.6438 95.0806 48.8108 90.4677 51.4271 85.5106C53.9745 80.5534 55.9711 75.252 57.3481 69.6753C58.6562 64.305 59.3447 58.6594 59.3447 52.8761V19.0712H58.6562C56.5219 18.9335 54.4564 18.4516 52.5975 17.7631C50.6009 17.0058 48.8108 15.9042 47.2273 14.596C45.5749 13.2879 44.1979 11.7044 43.0275 9.98316C41.9259 8.26194 41.0997 6.33416 40.5489 4.33754L40.3424 3.51135L39.5162 3.78675C35.1787 5.43913 30.9789 7.5046 27.1922 10.052C23.2678 12.5994 19.6877 15.6288 16.5206 19.0024C11.4258 24.4415 7.36371 30.8444 4.60975 37.867C1.92464 44.6142 0.478805 51.9811 0.478805 59.6922C0.478805 64.9247 1.09845 70.0195 2.40658 74.9078C3.71471 79.8649 5.64249 84.6155 8.1899 89.0219C10.6685 93.4282 13.6978 97.4903 17.1403 101.07C20.6516 104.651 24.576 107.818 28.9135 110.434L29.3265 110.709L29.7396 110.434C34.2148 107.198 38.4146 103.411 42.0636 99.2115V99.2115Z"
            fill="black" />
        <path fill-rule="evenodd" clip-rule="evenodd"
            d="M24.3008 71.1211C22.2353 70.0195 19.7567 69.6753 17.4159 70.4326C15.0061 71.19 13.0784 72.8423 12.0456 74.9078C10.9441 76.9733 10.5998 79.4519 11.3571 81.8616C12.1145 84.2713 13.7669 86.1302 15.8323 87.2318C17.8978 88.2645 20.3764 88.6088 22.7172 87.8514C25.127 87.0941 27.0547 85.4417 28.0875 83.4451C29.1891 81.3796 29.5333 78.9011 28.776 76.4913C28.0186 74.0816 26.3662 72.2227 24.3008 71.1211ZM33.5265 20.2417C31.4611 19.2089 28.9825 18.8647 26.5728 19.622C24.1631 20.3794 22.3041 22.0318 21.2026 24.0284C20.101 26.0939 19.8256 28.5724 20.5829 30.9821C21.2714 33.3918 22.9238 35.2508 24.9893 36.3524C27.0547 37.4539 29.5333 37.7982 31.943 37.0408C34.3527 36.2835 36.2117 34.6311 37.3132 32.5657C38.4148 30.5002 38.6902 28.0216 37.9329 25.6119C37.2444 23.271 35.592 21.3433 33.5265 20.2417ZM47.7094 44.6831C45.3686 43.4438 42.5458 43.0996 39.8606 43.9257C37.1755 44.7519 35.0412 46.6109 33.8019 48.9517C32.5627 51.2926 32.2184 54.0466 33.0446 56.8005C33.8708 59.4856 35.7297 61.6199 38.0706 62.8592C40.4114 64.0297 43.1654 64.3739 45.9194 63.5477C48.6045 62.7215 50.7388 60.8626 51.9781 58.5217C53.2174 56.2497 53.5616 53.4269 52.6666 50.7418C51.8404 47.9878 49.9815 45.9224 47.7094 44.6831Z"
            fill="black" />
    </g>
    <defs>
        <linearGradient id="paint0_linear_175_3846" x1="1.16871" y1="55.4923" x2="118.901"
            y2="55.4923" gradientUnits="userSpaceOnUse">
            <stop stop-color="#EB001B" />
            <stop offset="0.490196" stop-color="#F79E1B" />
            <stop offset="1" stop-color="#EB001B" />
        </linearGradient>
        <linearGradient id="paint1_linear_175_3846" x1="118.899" y1="55.4923" x2="1.16683"
            y2="55.4923" gradientUnits="userSpaceOnUse">
            <stop stop-color="#EB001B" />
            <stop offset="0.490196" stop-color="#F79E1B" />
            <stop offset="1" stop-color="#EB001B" />
        </linearGradient>
        <clipPath id="clip0_175_3846">
            <rect width="119.522" height="119.522" fill="white" transform="translate(0.239258)" />
        </clipPath>
    </defs>
</svg>
